<svg width="512" height="512" viewBox="0 0 512 512" fill="none" xmlns="http://www.w3.org/2000/svg">
<path d="M338.321 188.627C332.242 194.524 323.902 196.257 320.429 192.789C316.953 189.32 318.689 180.823 324.771 174.926C330.85 169.029 339.016 167.12 342.491 170.591C345.966 173.885 344.403 182.73 338.321 188.627" fill="#FCD20A"/>
<path d="M362.992 187.76C358.648 192.616 352.741 194.35 349.788 191.922C347.01 189.494 348.05 183.077 352.395 178.223C356.739 173.539 362.818 171.283 365.599 173.711C368.552 176.313 367.334 182.902 362.992 187.76" fill="#FCD800"/>
<path d="M260.489 157.408C252.323 155.674 241.031 158.451 233.213 166.081C225.048 174.059 219.14 185.156 222.441 194.176C223.656 197.819 229.043 201.462 233.213 201.634C241.551 201.98 251.106 198.165 257.536 192.268C264.485 185.851 268.306 176.487 268.482 169.722C268.482 168.163 268.482 167.294 268.134 165.56C267.439 161.745 263.618 158.102 260.489 157.41" fill="#F8A81B"/>
<path d="M304.965 189.494C296.799 197.298 284.814 200.074 280.121 195.565C275.431 190.881 278.21 179.436 286.375 171.629C294.367 163.827 305.833 161.917 310.352 166.601C315.04 171.111 312.956 181.689 304.965 189.494Z" fill="#F9BB16"/>
<path d="M358.302 151.339C353.263 158.102 345.27 161.051 341.276 158.276C337.28 155.502 337.28 146.829 342.145 140.066C347.181 133.302 355.349 129.833 359.343 132.608C363.339 135.382 363.339 144.575 358.302 151.339" fill="#FCD20A"/>
<path d="M377.584 158.623C373.591 164.171 367.683 166.773 364.382 164.519C361.081 162.266 361.604 155.674 365.599 150.126C369.595 144.749 375.675 141.627 378.976 143.881C382.103 146.137 381.582 153.246 377.586 158.623" fill="#FCD800"/>
<path d="M293.326 129.833C283.248 141.973 267.786 146.829 261.183 140.586C253.54 133.128 253.192 121.334 264.485 107.115C276.646 91.8525 290.199 91.1579 297.321 96.8805C304.27 102.605 303.401 117.693 293.326 129.833" fill="#F9B517"/>
<path d="M331.025 141.801C323.554 154.287 312.089 154.461 307.051 150.472C302.012 146.309 303.401 134.515 310.698 125.844C317.995 117.173 329.461 113.704 334.152 118.386C337.975 122.203 336.758 132.087 331.025 141.801" fill="#FAC113"/>
<path d="M250.065 68.0911C223.656 56.9942 197.076 92.7191 199.162 112.838C200.897 128.272 210.628 134.515 224.525 132.435C224.699 132.263 225.048 132.263 225.222 132.263C239.816 130.354 251.975 118.386 257.536 107.982C259.446 104.339 260.837 100.003 261.532 95.4934C261.704 93.76 261.878 91.8525 261.878 90.117C261.706 80.5793 258.231 71.5599 250.065 68.0911" fill="#F7A11C"/>
<path d="M194.643 148.044C188.564 149.085 182.83 151.513 177.617 154.982C169.106 160.01 162.155 166.601 157.985 174.58C152.949 184.292 153.641 193.137 157.813 199.206C159.723 202.5 162.501 204.41 165.11 205.623C166.499 206.143 168.063 206.664 169.626 207.01C174.142 208.051 179.355 208.051 185.088 206.49C201.766 201.98 220.878 183.771 220.704 166.601C220.876 149.777 208.542 145.096 194.643 148.042" fill="#F7991D"/>
<path d="M358.128 214.294C353.438 218.804 347.53 220.191 344.752 217.591C342.145 214.989 343.534 208.746 348.225 204.236C352.915 199.726 358.997 197.993 361.775 200.593C364.556 203.195 362.818 209.784 358.128 214.294Z" fill="#FCD800"/>
<path d="M329.287 222.793C323.033 228.341 315.041 229.73 311.74 226.087C308.614 222.447 311.046 214.988 317.474 209.438C323.902 204.062 331.373 202.5 334.674 206.143C337.975 209.958 335.715 217.242 329.287 222.793Z" fill="#FCD20A"/>
<path d="M290.719 234.587C282.205 241.87 271.607 243.778 267.265 238.922C262.921 234.066 266.396 224.18 274.908 216.896C283.422 209.612 293.497 207.705 297.841 212.561C302.358 217.417 299.231 227.303 290.719 234.587Z" fill="#F9BD15"/>
<path d="M243.289 218.283C226.263 213.427 199.334 235.107 203.158 252.103C204.026 255.918 209.411 259.387 213.581 259.907C230.607 261.64 249.717 243.606 250.76 230.595C250.588 229.036 250.588 227.649 250.588 226.088C250.065 222.273 246.244 219.15 243.289 218.283" fill="#F9A81A"/>
<path d="M197.598 237.187C194.469 224.354 178.835 225.395 168.409 228.344C164.587 229.21 160.591 230.771 156.944 232.679C151.557 235.281 147.041 238.576 143.045 242.391C138.006 247.247 129.492 258 131.23 268.406C132.968 279.331 146.867 282.626 159.202 279.677C174.142 276.382 202.288 257.133 197.598 237.187" fill="#F79A1D"/>
<path d="M107.202 346.687C105.513 341.758 105.642 334.883 97.4558 335.012C89.3982 335.271 85.6292 340.46 85.6292 346.818C85.6292 357.064 111.621 359.011 113.571 379.769C114.74 392.223 102.653 412.72 78.3518 412.979C68.4749 412.979 56.1303 408.568 56 387.812L73.5436 384.049C73.6739 389.239 73.2846 398.578 83.2919 398.578C90.9586 398.578 94.8579 391.444 95.5062 385.735C96.9362 372.763 67.9569 369 68.0856 352.396C68.3462 336.828 78.3518 320.872 102.264 321.001C126.046 321.131 122.796 342.407 122.796 342.407L107.202 346.687Z" fill="#F11A24"/>
<path fill-rule="evenodd" clip-rule="evenodd" d="M143.07 360.05L133.712 396.892C135.792 400.135 138.392 401.821 141.77 401.693C143.85 401.821 145.928 400.914 147.878 398.708C149.828 396.503 151.777 392.223 153.336 385.606L156.975 371.336C158.535 364.85 158.924 360.439 158.014 358.363C157.105 356.159 155.545 355.12 153.466 355.379C150.217 355.25 146.839 356.807 143.07 360.05ZM131.632 344.871H145.669L143.589 353.043H143.85C145.928 350.839 148.528 348.764 152.038 346.818C155.545 344.871 158.923 343.834 162.433 343.703C168.28 343.703 172.049 346.039 173.609 350.58C175.168 355.12 174.779 361.736 172.44 370.427L168.28 386.774C166.202 395.335 163.213 402.082 159.314 406.621C155.545 411.162 150.606 413.368 144.759 413.497C142.65 413.486 140.584 412.904 138.781 411.811C136.701 410.643 134.232 408.827 131.373 406.103L121.887 443.465H106.813L131.634 344.873L131.632 344.871ZM264.317 368.093H249.112L249.892 365.109C250.542 362.514 250.153 360.568 248.853 359.141C247.683 357.845 245.603 357.066 242.875 357.066C240.145 357.066 237.806 357.714 235.857 359.141C233.907 360.439 232.607 362.514 231.829 365.109L225.069 391.833C224.419 394.428 224.809 396.373 225.978 397.801C227.278 399.098 229.228 399.748 231.957 399.748C234.686 399.748 237.025 399.098 238.974 397.801C240.924 396.503 242.224 394.428 242.874 391.833L243.913 387.683H259.248V387.94C256.907 396.762 253.14 403.25 247.941 407.271C242.743 411.421 236.246 413.368 228.578 413.239C220.911 413.368 215.323 411.293 212.204 407.271C208.954 403.119 208.565 396.762 210.643 387.94L215.323 369.131C217.662 360.309 221.431 353.823 226.628 349.802C231.957 345.651 238.324 343.705 245.991 343.705C253.529 343.575 258.857 345.651 262.106 349.541C265.615 353.305 266.265 359.53 264.315 368.093H264.317ZM318.897 382.233H285.631L283.421 391.185C282.64 394.557 282.901 396.892 284.201 398.45C285.499 400.005 287.45 400.784 290.048 400.784C293.297 400.655 295.765 399.876 297.584 398.06C299.534 396.242 300.705 394.039 301.353 391.314H316.688C314.608 398.319 310.97 403.768 305.903 407.529C300.835 411.421 294.465 413.239 286.799 413.368C279.391 413.239 274.063 411.162 270.815 407.011C267.566 402.86 266.786 397.021 268.475 389.498L274.063 367.574C276.013 360.179 279.782 354.341 285.11 350.191C290.568 346.039 296.936 343.834 304.342 343.834C311.491 343.962 316.819 346.039 320.197 350.061C323.575 354.211 324.485 359.661 322.927 366.666L318.897 382.233ZM288.748 369.649H306.681L307.592 365.888C308.372 362.904 308.242 360.568 307.202 358.752C306.162 357.066 304.082 356.157 300.964 356.157C297.845 356.157 295.376 357.066 293.556 358.752C291.607 360.57 290.307 362.902 289.659 365.888L288.748 369.649ZM410.256 382.233H376.988L374.777 391.185C373.999 394.557 374.258 396.892 375.558 398.45C376.857 400.005 378.807 400.784 381.405 400.784C384.654 400.655 387.124 399.876 389.073 398.06C390.891 396.242 392.062 394.039 392.712 391.314H408.047C405.967 398.319 402.328 403.768 397.39 407.529C392.323 411.421 386.084 413.239 378.287 413.368C370.88 413.239 365.552 411.162 362.303 407.011C359.053 402.86 358.275 397.021 359.964 389.498L365.422 367.443C367.371 360.05 371.139 354.212 376.468 350.061C381.926 345.91 388.293 343.703 395.701 343.703C402.978 343.834 408.176 345.909 411.555 349.93C414.933 354.082 415.844 359.53 414.155 366.536L410.254 382.233H410.256ZM380.235 369.649H398.17L399.079 365.888C399.859 362.904 399.729 360.568 398.69 358.752C397.65 357.066 395.571 356.157 392.582 356.157C389.463 356.157 386.993 357.066 385.044 358.752C383.096 360.57 381.794 362.902 381.016 365.888L380.235 369.649ZM419.742 360.439L422.862 347.855H430.788L436.637 324.504H451.97L446.123 347.855H456L452.879 360.439H443.004L434.427 394.816C434.037 396.503 434.298 397.671 435.466 398.58C436.507 399.357 438.065 399.876 440.145 399.876C441.185 399.876 442.224 399.748 443.265 399.748L440.015 412.848C437.026 413.238 434.038 413.497 431.049 413.497C425.982 413.497 422.211 412.459 419.872 410.514C417.533 408.439 416.883 404.935 417.922 400.135L427.671 360.439H419.742Z" fill="#F11A24"/>
<path d="M331.763 391.444L348.657 324.504H363.991L358.014 348.244L339.431 419.854C337.09 428.676 333.323 435.033 328.124 439.054C322.927 443.205 316.429 445.151 308.761 445.151C300.964 445.151 295.506 443.205 292.387 439.054C289.137 434.903 288.618 428.545 290.826 419.724L306.292 419.595L305.122 423.616C304.603 426.211 304.862 428.156 306.161 429.454C307.461 430.751 309.411 431.529 312.141 431.529C314.869 431.529 317.208 430.751 319.158 429.454C321.107 428.156 322.407 426.211 323.186 423.615L324.616 418.168L331.763 391.444Z" fill="#F11A24"/>
<path fill-rule="evenodd" clip-rule="evenodd" d="M191.803 344.871H207.136L190.243 412.07H174.908L191.803 344.871ZM208.827 338.644H193.622L197.129 324.504H212.336L208.827 338.644Z" fill="#F11A24"/>
</svg>
